<svg width="1249" height="630" viewBox="0 0 1249 630" fill="none" xmlns="http://www.w3.org/2000/svg">
<rect x="54" y="50" width="1143" height="530" rx="3" stroke="white" stroke-width="2"/>
<path d="M275.976 283.131C253.878 239.792 196.971 215.753 151.864 236.74C150.662 237.3 149.489 237.896 148.329 238.521C148.086 226.279 147.85 214.088 147.627 201.989C147.463 190.731 147.37 179.444 147.377 168.149C166.634 152.267 188.711 136.083 199.825 112.475C206.209 97.7484 208.463 81.3419 208.105 65.6823C207.539 42.1676 199.639 17.9489 182.557 1.31996C182.306 0.501605 181.52 -0.0659036 180.632 0.00616138L178.378 0.171105C168.094 0.730994 159.342 7.52383 153.252 15.4434C143.999 26.8809 140.378 41.7941 139.133 56.0609C137.63 73.5949 138.675 91.9611 138.367 109.51C138.317 118.556 138.21 128.005 138.081 137.62C133.623 140.319 129.158 143.019 124.792 145.855C119.962 148.907 114.981 152.691 110.343 156.037C104.554 160.538 98.7854 165.449 93.5117 170.562C88.6095 175.1 84.1653 180.097 79.7217 185.08C77.1311 188.268 73.8962 192.267 71.3775 195.505C69.6454 197.961 65.4166 203.949 63.7204 206.44L62.5539 208.336L60.2278 212.127C44.7347 237.213 34.3503 265.503 29.4488 294.568C25.4273 320.532 25.0474 347.579 31.1375 373.247C35.2599 390.422 42.4515 407.244 53.9375 420.78C72.5508 443.282 101.534 453.715 129.93 455.89C133.602 456.163 137.302 456.314 141.016 456.335C141.374 486.255 141.338 515.815 140.507 544.65C139.405 561.064 136.156 577.995 126.324 591.478C109.02 615.439 75.2422 625.304 48.6209 612.042C41.4217 608.56 34.7592 603.734 29.2776 597.883L27.2237 595.671L25.3348 593.324L24.3899 592.153C21.1771 587.73 18.2999 582.92 16.3461 577.801C10.6214 563.641 10.9356 547.68 15.9669 533.363C19.5168 549.123 33.2853 561.136 50.1314 561.71C70.1688 562.4 86.9651 546.661 87.6516 526.564C88.3312 506.46 72.6447 489.608 52.6142 488.919C37.3573 488.395 26.4149 498.526 25.6352 499.129C19.8669 504.22 14.7721 510.222 10.8645 516.85L9.11099 519.951L8.67449 520.727L8.28082 521.531L7.5149 523.139C7.12814 524.008 6.34154 525.516 6.04042 526.377C4.75238 529.53 3.45675 533.242 2.56928 536.487C2.29717 537.615 1.60306 540.637 1.36686 541.707C1.14517 543.043 0.76599 545.541 0.522195 547.006C-0.716117 557.704 0.207285 568.769 3.72815 578.979C4.02167 580.034 4.60112 581.305 5.00169 582.353L5.67437 584.026C7.98593 589.526 11.156 594.703 14.663 599.513L15.7791 600.906L18.0333 603.684C18.6556 604.331 21.146 607.095 21.6757 607.612C22.5846 608.438 24.6096 610.42 25.5758 611.274C35.4726 619.898 47.4669 626.108 60.3625 628.7L63.9123 629.289C64.5063 629.375 65.0934 629.497 65.6942 629.554C67.4332 629.676 69.3297 629.906 71.0687 629.985L74.6615 630H76.4578C77.6526 629.885 80.5795 629.748 81.8109 629.605C83.4926 629.411 85.4388 629.037 87.1136 628.822C87.7075 628.743 88.2801 628.578 88.8596 628.456L92.3376 627.666C106.092 624.076 118.902 616.731 128.77 606.442L130.022 605.171L131.189 603.806L133.5 601.078C136.348 597.373 139.082 593.194 141.172 589.008C145.959 579.631 148.707 569.285 150.232 558.967C152.221 545.669 152.192 531.869 152.178 518.665C152.378 501.519 152.271 482.894 152.135 465.812C152.114 462.567 152.085 459.307 152.056 456.048C201.857 453.126 252.101 428.103 274.629 382.1C289.845 351.679 291.863 313.883 275.976 283.131ZM150.161 83.4602C151.786 64.2895 153.246 40.2365 165.268 24.9427C169.476 19.8019 174.385 14.7684 178.944 9.83612C189.535 26.1491 192.927 46.0307 191.052 65.2014C190.136 75.2247 187.795 85.3706 184.096 94.6108C182.721 97.921 181.254 101.03 179.372 103.966C176.167 108.727 171.987 113.272 167.708 117.092C161.568 122.534 154.805 127.194 147.834 131.61C148.251 115.526 148.98 99.4572 150.161 83.4602ZM114.487 447.726C89.7194 441.838 67.9926 427.644 57.3299 403.863C56.3277 401.917 55.2262 398.787 54.403 396.74C54.0238 395.419 52.9788 392.526 52.657 391.219C50.775 384.419 49.5367 377.318 48.9504 370.274C47.4331 352.166 49.6735 333.706 53.7165 316.036C54.153 313.825 54.9334 310.579 55.5556 308.454L57.5951 300.943C58.2609 298.724 59.2409 295.795 59.9778 293.541C65.5527 276.481 73.1524 259.852 82.1694 244.393C82.7419 243.417 86.6924 236.954 87.1213 236.186C87.8582 235.045 89.5474 232.625 90.3203 231.411C91.5013 229.673 93.3619 226.693 94.6285 225.078C97.6127 221.022 100.561 216.749 103.795 212.851C104.497 211.946 106.686 209.188 107.324 208.334C109.37 205.9 111.474 203.524 113.514 201.075C115.11 199.079 116.913 197.291 118.623 195.403L121.207 192.581C122.073 191.648 122.896 190.664 123.826 189.795C128.249 185.315 132.792 180.913 137.48 176.663C137.351 185.315 137.23 193.83 137.144 202.001C136.893 216.484 136.829 231.145 136.887 245.944C120.17 258.976 108.698 278.441 105.148 299.284C102.321 315.698 104.962 333.921 114.144 347.656C116.677 351.368 122.467 348.726 121.236 344.31C114.294 321.556 121.623 296.34 137.201 279.015C138.038 335.809 140.178 394.018 140.952 451.042C132.006 450.914 123.11 449.831 114.487 447.726ZM256.382 374.526C242.527 419.602 197.815 447.41 152.014 450.727C151.471 390.824 150.168 329.24 148.93 268.619C153.102 265.719 157.596 263.306 162.362 261.497C197.149 249.111 238.247 270.479 253.233 303.321C263.467 325.342 263.796 351.305 256.382 374.526Z" fill="white"/>
<path d="M1071.24 378.363V557.118C1062.84 549.682 1051.31 545.093 1038.6 545.093C1012.86 545.093 992 563.876 992 587.046C992 610.217 1012.86 629 1038.6 629C1064.33 629 1085.19 610.217 1085.19 587.046V430.608L1235.05 405.009V526.756C1226.65 519.319 1215.12 514.73 1202.4 514.73C1176.67 514.73 1155.81 533.513 1155.81 556.684C1155.81 579.854 1176.67 598.637 1202.4 598.637C1228.14 598.637 1249 579.854 1249 556.684V348L1071.24 378.363Z" fill="white"/>
</svg>
