<svg width="1294" height="725" viewBox="0 0 1294 725" fill="none" xmlns="http://www.w3.org/2000/svg">
<path d="M53.4965 295.602L53.5073 295.445L53.4851 295.289L14.7503 22.1594L360.369 52.4943L360.418 52.4985L360.466 52.4996L830.466 62.9996L830.581 63.0022L830.694 62.9874L1202.34 14.5989L1279.95 115.451L1260.51 335.368L1260.5 335.487L1260.5 335.607L1279.94 608.154L1095.16 710.974L321.601 659.003L321.411 658.991L321.224 659.026L100.64 700.354L32.0346 609.045L53.4965 295.602Z" fill="#141715" stroke="#2DDFE5" stroke-width="3"/>
<g opacity="0.58">
<mask id="mask0_12_24326" style="mask-type:alpha" maskUnits="userSpaceOnUse" x="13" y="13" width="1269" height="700">
<path d="M53.4965 295.602L53.5073 295.445L53.4851 295.289L14.7503 22.1594L360.369 52.4943L360.418 52.4985L360.466 52.4996L830.466 62.9996L830.581 63.0022L830.694 62.9874L1202.34 14.5989L1279.95 115.451L1260.51 335.368L1260.5 335.487L1260.5 335.607L1279.94 608.154L1095.16 710.974L321.601 659.003L321.411 658.991L321.224 659.026L100.64 700.354L32.0346 609.045L53.4965 295.602Z" fill="#141715" stroke="#2DE579" stroke-width="3"/>
</mask>
<g mask="url(#mask0_12_24326)">
<path d="M-435.926 410.326C-392.662 343.792 -349.4 277.258 -283.963 261.292C-218.524 245.327 -130.913 279.931 -71.3906 250.48C-11.8661 221.029 19.5721 127.526 80.5726 101.447C141.576 75.3686 232.144 116.714 293.147 90.634C354.148 64.5548 385.586 -28.9485 445.11 -58.3998C504.634 -87.8478 592.245 -53.2448 657.683 -69.2114C723.12 -85.178 766.382 -151.711 809.646 -218.245" stroke="url(#paint0_linear_12_24326)" stroke-width="2"/>
<path d="M-417.277 452.855C-374.013 386.321 -330.751 319.788 -265.313 303.821C-199.875 287.857 -112.263 322.46 -52.7411 293.01C6.78333 263.558 38.2215 170.055 99.222 143.976C160.226 117.898 250.794 159.243 311.796 133.163C372.797 107.084 404.235 13.5808 463.76 -15.8705C523.283 -45.3185 610.895 -10.7155 676.332 -26.6821C741.769 -42.6487 785.031 -109.182 828.295 -175.716" stroke="url(#paint1_linear_12_24326)" stroke-width="2"/>
<path d="M-398.628 495.384C-355.364 428.85 -312.102 362.317 -246.664 346.353C-181.226 330.386 -93.6147 364.989 -34.0924 335.539C25.4321 306.087 56.8703 212.584 117.872 186.507C178.874 160.427 269.443 201.773 330.445 175.692C391.446 149.613 422.884 56.11 482.409 26.6609C541.932 -2.78935 629.543 31.8137 694.981 15.8471C760.418 -0.119458 803.68 -66.6525 846.945 -133.184" stroke="url(#paint2_linear_12_24326)" stroke-width="2"/>
<path d="M-379.98 537.913C-338.061 468.311 -296.145 398.71 -230.347 383.565C-164.549 368.42 -74.8716 407.734 -15.4441 378.068C43.9857 348.401 73.1685 249.754 134.189 223.719C195.211 197.684 288.071 244.257 349.094 218.222C410.114 192.187 439.296 93.5402 498.726 63.8729C558.154 34.2067 647.831 73.5214 713.629 58.3764C779.427 43.2314 821.343 -26.37 863.262 -95.9724" stroke="url(#paint3_linear_12_24326)" stroke-width="2"/>
<path d="M-361.331 580.443C-319.412 510.84 -277.496 441.239 -211.698 426.094C-145.901 410.949 -56.2232 450.263 3.20438 420.597C62.6341 390.93 91.8169 292.283 152.837 266.248C213.859 240.213 306.72 286.786 367.742 260.751C428.762 234.716 457.945 136.069 517.375 106.402C576.802 76.7358 666.48 116.051 732.277 100.906C798.075 85.7606 839.991 16.1592 881.91 -53.4432" stroke="url(#paint4_linear_12_24326)" stroke-width="2"/>
<path d="M-342.682 622.972C-300.763 553.369 -258.847 483.768 -193.049 468.623C-127.251 453.478 -37.5737 492.793 21.8538 463.126C81.2835 433.459 110.466 334.812 171.486 308.778C232.509 282.742 325.369 329.316 386.391 303.28C447.411 277.246 476.594 178.599 536.024 148.931C595.452 119.265 685.129 158.58 750.927 143.435C816.725 128.29 858.641 58.6885 900.559 -10.9139" stroke="url(#paint5_linear_12_24326)" stroke-width="2"/>
<path d="M-324.034 665.501C-282.116 595.899 -240.199 526.297 -174.402 511.152C-108.604 496.007 -18.9263 535.322 40.5013 505.656C99.931 475.988 129.114 377.341 190.134 351.307C251.156 325.271 344.017 371.845 405.039 345.809C466.059 319.775 495.242 221.128 554.672 191.461C614.099 161.794 703.777 201.109 769.574 185.964C835.372 170.819 877.288 101.218 919.207 31.6153" stroke="url(#paint6_linear_12_24326)" stroke-width="2"/>
<path d="M164.074 703.326C207.338 636.792 250.6 570.258 316.037 554.292C381.476 538.328 469.087 572.931 528.609 543.48C588.134 514.029 619.572 420.526 680.573 394.447C741.576 368.369 832.144 409.714 893.147 383.634C954.148 357.555 985.586 264.052 1045.11 234.6C1104.63 205.152 1192.25 239.755 1257.68 223.789C1323.12 207.822 1366.38 141.289 1409.65 74.755" stroke="url(#paint7_linear_12_24326)" stroke-width="2"/>
<path d="M182.723 745.855C225.987 679.321 269.249 612.788 334.687 596.821C400.125 580.857 487.737 615.46 547.259 586.01C606.783 556.558 638.222 463.055 699.222 436.976C760.226 410.898 850.794 452.243 911.796 426.163C972.797 400.084 1004.24 306.581 1063.76 277.13C1123.28 247.682 1210.89 282.285 1276.33 266.318C1341.77 250.351 1385.03 183.818 1428.3 117.284" stroke="url(#paint8_linear_12_24326)" stroke-width="2"/>
<path d="M201.372 788.384C244.636 721.85 287.898 655.317 353.336 639.353C418.774 623.386 506.385 657.989 565.908 628.539C625.432 599.088 656.87 505.584 717.872 479.507C778.874 453.427 869.443 494.773 930.445 468.693C991.446 442.613 1022.88 349.11 1082.41 319.661C1141.93 290.211 1229.54 324.814 1294.98 308.847C1360.42 292.881 1403.68 226.348 1446.94 159.816" stroke="url(#paint9_linear_12_24326)" stroke-width="2"/>
<path d="M220.02 830.913C261.939 761.311 303.855 691.71 369.653 676.565C435.451 661.42 525.128 700.734 584.556 671.068C643.986 641.401 673.169 542.754 734.189 516.719C795.211 490.684 888.071 537.257 949.094 511.222C1010.11 485.187 1039.3 386.54 1098.73 356.873C1158.15 327.207 1247.83 366.521 1313.63 351.376C1379.43 336.231 1421.34 266.63 1463.26 197.028" stroke="url(#paint10_linear_12_24326)" stroke-width="2"/>
<path d="M238.669 873.443C280.588 803.84 322.504 734.239 388.302 719.094C454.099 703.949 543.777 743.264 603.204 713.597C662.634 683.93 691.817 585.283 752.837 559.248C813.859 533.213 906.72 579.787 967.742 553.751C1028.76 527.716 1057.94 429.069 1117.37 399.402C1176.8 369.736 1266.48 409.051 1332.28 393.906C1398.08 378.761 1439.99 309.159 1481.91 239.557" stroke="url(#paint11_linear_12_24326)" stroke-width="2"/>
<path d="M257.318 915.972C299.237 846.369 341.153 776.768 406.951 761.623C472.749 746.478 562.426 785.793 621.854 756.126C681.284 726.459 710.466 627.812 771.486 601.778C832.509 575.742 925.369 622.316 986.391 596.28C1047.41 570.246 1076.59 471.599 1136.02 441.931C1195.45 412.265 1285.13 451.58 1350.93 436.435C1416.72 421.29 1458.64 351.688 1500.56 282.086" stroke="url(#paint12_linear_12_24326)" stroke-width="2"/>
<path d="M275.966 958.501C317.884 888.899 359.801 819.297 425.598 804.152C491.396 789.007 581.074 828.322 640.501 798.656C699.931 768.988 729.114 670.342 790.134 644.307C851.156 618.271 944.017 664.845 1005.04 638.809C1066.06 612.775 1095.24 514.128 1154.67 484.461C1214.1 454.794 1303.78 494.109 1369.57 478.964C1435.37 463.819 1477.29 394.218 1519.21 324.615" stroke="url(#paint13_linear_12_24326)" stroke-width="2"/>
</g>
</g>
<g filter="url(#filter0_f_12_24326)">
<path d="M52 295.5L13 20.5L360.5 51L830.5 61.5L1203 13L1281.5 115L1262 335.5L1281.5 609L1095.5 712.5L321.5 660.5L100 702L30.5 609.5L52 295.5Z" stroke="#2DD9E5" stroke-width="4"/>
</g>
<defs>
<filter id="filter0_f_12_24326" x="0.666016" y="0.868164" width="1292.92" height="723.667" filterUnits="userSpaceOnUse" color-interpolation-filters="sRGB">
<feFlood flood-opacity="0" result="BackgroundImageFix"/>
<feBlend mode="normal" in="SourceGraphic" in2="BackgroundImageFix" result="shape"/>
<feGaussianBlur stdDeviation="5" result="effect1_foregroundBlur_12_24326"/>
</filter>
<linearGradient id="paint0_linear_12_24326" x1="-451.078" y1="375.77" x2="824.798" y2="-183.69" gradientUnits="userSpaceOnUse">
<stop stop-color="#D0E0E6"/>
<stop offset="0.199" stop-color="#3A859E"/>
<stop offset="0.8" stop-color="#299278"/>
<stop offset="1" stop-color="#D0E0E6"/>
</linearGradient>
<linearGradient id="paint1_linear_12_24326" x1="-432.429" y1="418.299" x2="843.447" y2="-141.16" gradientUnits="userSpaceOnUse">
<stop stop-color="#D0E0E6"/>
<stop offset="0.199" stop-color="#3A859E"/>
<stop offset="0.8" stop-color="#299278"/>
<stop offset="1" stop-color="#D0E0E6"/>
</linearGradient>
<linearGradient id="paint2_linear_12_24326" x1="-413.78" y1="460.829" x2="862.096" y2="-98.6303" gradientUnits="userSpaceOnUse">
<stop stop-color="#D0E0E6"/>
<stop offset="0.199" stop-color="#3A859E"/>
<stop offset="0.8" stop-color="#299278"/>
<stop offset="1" stop-color="#D0E0E6"/>
</linearGradient>
<linearGradient id="paint3_linear_12_24326" x1="-396.297" y1="500.7" x2="879.579" y2="-58.7593" gradientUnits="userSpaceOnUse">
<stop stop-color="#D0E0E6"/>
<stop offset="0.199" stop-color="#3A859E"/>
<stop offset="0.8" stop-color="#299278"/>
<stop offset="1" stop-color="#D0E0E6"/>
</linearGradient>
<linearGradient id="paint4_linear_12_24326" x1="-377.649" y1="543.229" x2="898.228" y2="-16.2301" gradientUnits="userSpaceOnUse">
<stop stop-color="#D0E0E6"/>
<stop offset="0.199" stop-color="#3A859E"/>
<stop offset="0.8" stop-color="#299278"/>
<stop offset="1" stop-color="#D0E0E6"/>
</linearGradient>
<linearGradient id="paint5_linear_12_24326" x1="-358.999" y1="585.759" x2="916.877" y2="26.2992" gradientUnits="userSpaceOnUse">
<stop stop-color="#D0E0E6"/>
<stop offset="0.199" stop-color="#3A859E"/>
<stop offset="0.8" stop-color="#299278"/>
<stop offset="1" stop-color="#D0E0E6"/>
</linearGradient>
<linearGradient id="paint6_linear_12_24326" x1="-340.352" y1="628.288" x2="935.524" y2="68.8283" gradientUnits="userSpaceOnUse">
<stop stop-color="#D0E0E6"/>
<stop offset="0.199" stop-color="#3A859E"/>
<stop offset="0.8" stop-color="#299278"/>
<stop offset="1" stop-color="#D0E0E6"/>
</linearGradient>
<linearGradient id="paint7_linear_12_24326" x1="148.922" y1="668.77" x2="1424.8" y2="109.311" gradientUnits="userSpaceOnUse">
<stop stop-color="#D0E0E6"/>
<stop offset="0.199" stop-color="#3A859E"/>
<stop offset="0.8" stop-color="#299278"/>
<stop offset="1" stop-color="#D0E0E6"/>
</linearGradient>
<linearGradient id="paint8_linear_12_24326" x1="167.571" y1="711.299" x2="1443.45" y2="151.84" gradientUnits="userSpaceOnUse">
<stop stop-color="#D0E0E6"/>
<stop offset="0.199" stop-color="#3A859E"/>
<stop offset="0.8" stop-color="#299278"/>
<stop offset="1" stop-color="#D0E0E6"/>
</linearGradient>
<linearGradient id="paint9_linear_12_24326" x1="186.22" y1="753.829" x2="1462.1" y2="194.37" gradientUnits="userSpaceOnUse">
<stop stop-color="#D0E0E6"/>
<stop offset="0.199" stop-color="#3A859E"/>
<stop offset="0.8" stop-color="#299278"/>
<stop offset="1" stop-color="#D0E0E6"/>
</linearGradient>
<linearGradient id="paint10_linear_12_24326" x1="203.703" y1="793.7" x2="1479.58" y2="234.241" gradientUnits="userSpaceOnUse">
<stop stop-color="#D0E0E6"/>
<stop offset="0.199" stop-color="#3A859E"/>
<stop offset="0.8" stop-color="#299278"/>
<stop offset="1" stop-color="#D0E0E6"/>
</linearGradient>
<linearGradient id="paint11_linear_12_24326" x1="222.351" y1="836.229" x2="1498.23" y2="276.77" gradientUnits="userSpaceOnUse">
<stop stop-color="#D0E0E6"/>
<stop offset="0.199" stop-color="#3A859E"/>
<stop offset="0.8" stop-color="#299278"/>
<stop offset="1" stop-color="#D0E0E6"/>
</linearGradient>
<linearGradient id="paint12_linear_12_24326" x1="241.001" y1="878.759" x2="1516.88" y2="319.299" gradientUnits="userSpaceOnUse">
<stop stop-color="#D0E0E6"/>
<stop offset="0.199" stop-color="#3A859E"/>
<stop offset="0.8" stop-color="#299278"/>
<stop offset="1" stop-color="#D0E0E6"/>
</linearGradient>
<linearGradient id="paint13_linear_12_24326" x1="259.648" y1="921.288" x2="1535.52" y2="361.828" gradientUnits="userSpaceOnUse">
<stop stop-color="#D0E0E6"/>
<stop offset="0.199" stop-color="#3A859E"/>
<stop offset="0.8" stop-color="#299278"/>
<stop offset="1" stop-color="#D0E0E6"/>
</linearGradient>
</defs>
</svg>
