<svg width="717" height="147" viewBox="0 0 717 147" fill="none" xmlns="http://www.w3.org/2000/svg">
<path d="M600.003 144H595.083L592.923 135.504H581.499L579.339 144H574.419L583.251 110.4H591.171L600.003 144ZM586.899 114.048L582.267 131.856H592.155L587.523 114.048H586.899ZM609.045 144V140.352H615.981V114.048H609.045V110.4H627.717V114.048H620.733V140.352H627.717V144H609.045Z" fill="#D0E0E6"/>
<path d="M93.011 10.8C93.011 9.86133 92.7977 9.22133 92.371 8.88C92.0297 8.53866 91.219 8.24 89.939 7.98399L85.203 6.96V4.39999H127.699V6.96L122.195 8.112C120.915 8.368 120.062 8.66666 119.635 9.008C119.294 9.34933 119.123 9.98933 119.123 10.928V90.16H135.251C140.286 90.16 144.211 89.392 147.027 87.856C149.843 86.32 152.019 84.144 153.555 81.328C155.176 78.512 156.968 74.2453 158.931 68.528H162.515V94H85.203V91.44L89.939 90.416C91.219 90.16 92.0297 89.8613 92.371 89.52C92.7977 89.1787 93.011 88.5387 93.011 87.6V10.8ZM204.751 34.48C202.788 34.9067 201.807 35.7173 201.807 36.912C201.807 37.424 202.02 38.1067 202.447 38.96L217.295 68.784L231.247 36.272C231.503 35.76 231.631 35.3333 231.631 34.992C231.631 34.48 231.076 34.1813 229.967 34.096L226.639 33.712V31.792H241.359V33.712L238.031 34.224C237.007 34.3947 236.282 34.608 235.855 34.864C235.428 35.12 235.002 35.7173 234.575 36.656L209.615 94C206.202 101.936 203.386 107.739 201.167 111.408C199.034 115.163 196.602 118.021 193.871 119.984C191.226 122.032 187.642 123.611 183.119 124.72L176.207 105.264C182.01 105.008 187.514 104.027 192.719 102.32C197.924 100.699 202.404 98.608 206.159 96.048L175.311 37.168C174.884 36.4 174.372 35.8453 173.775 35.504C173.263 35.1627 172.58 34.9067 171.727 34.736L167.887 33.712V31.792H208.079V33.712L204.751 34.48ZM277.843 42.032C285.267 34.4373 292.819 30.64 300.499 30.64C303.315 30.64 305.534 30.9813 307.155 31.664L305.235 51.632H304.339L278.099 45.872V87.856C278.099 88.7947 278.27 89.4773 278.611 89.904C279.038 90.2453 279.848 90.544 281.043 90.8L285.395 91.696V94H244.947V91.696L249.427 90.672C250.707 90.416 251.518 90.1173 251.859 89.776C252.286 89.4347 252.499 88.7947 252.499 87.856V39.472C252.499 38.5333 252.286 37.8933 251.859 37.552C251.518 37.2107 250.707 36.912 249.427 36.656L244.947 35.632V33.328L275.667 29.488H277.843V42.032ZM334.68 22.064C330.669 22.064 327.469 21.168 325.08 19.376C322.691 17.4987 321.496 14.8107 321.496 11.312C321.496 7.81333 322.691 5.168 325.08 3.376C327.469 1.49866 330.669 0.559998 334.68 0.559998C338.691 0.559998 341.891 1.49866 344.28 3.376C346.669 5.168 347.864 7.81333 347.864 11.312C347.864 14.8107 346.669 17.4987 344.28 19.376C341.891 21.168 338.691 22.064 334.68 22.064ZM314.328 91.696L318.808 90.672C320.088 90.416 320.899 90.1173 321.24 89.776C321.667 89.4347 321.88 88.7947 321.88 87.856V39.472C321.88 38.5333 321.667 37.8933 321.24 37.552C320.899 37.2107 320.088 36.912 318.808 36.656L314.328 35.632V33.328L345.048 29.488H347.48V87.856C347.48 88.7947 347.651 89.4347 347.992 89.776C348.419 90.1173 349.272 90.416 350.552 90.672L355.032 91.696V94H314.328V91.696ZM393.703 44.592C393.703 55.5147 394.684 64.304 396.647 70.96C398.61 77.5307 401.81 82.352 406.247 85.424C410.77 88.496 416.828 90.032 424.423 90.032H428.519V58.544H415.847V54.704H450.791V88.368C448.914 88.7093 446.652 89.2213 444.007 89.904C441.447 90.5013 439.484 90.9707 438.119 91.312C432.487 92.7627 427.964 93.8293 424.551 94.512C421.223 95.1947 418.108 95.536 415.207 95.536C406.076 95.536 397.799 94 390.375 90.928C382.951 87.7707 376.935 82.6507 372.327 75.568C367.804 68.4853 365.543 59.2693 365.543 47.92C365.543 32.4747 370.194 21.1253 379.495 13.872C388.796 6.53333 401.042 2.864 416.231 2.864C422.546 2.864 428.647 3.41866 434.535 4.52799C440.508 5.63733 445.159 7.00266 448.487 8.62399L446.695 30.64H443.111C440.722 23.3867 437.436 17.584 433.255 13.232C429.159 8.79466 423.527 6.576 416.359 6.576C408.252 6.576 402.45 9.776 398.951 16.176C395.452 22.4907 393.703 31.9627 393.703 44.592ZM483.18 22.064C479.169 22.064 475.969 21.168 473.58 19.376C471.191 17.4987 469.996 14.8107 469.996 11.312C469.996 7.81333 471.191 5.168 473.58 3.376C475.969 1.49866 479.169 0.559998 483.18 0.559998C487.191 0.559998 490.391 1.49866 492.78 3.376C495.169 5.168 496.364 7.81333 496.364 11.312C496.364 14.8107 495.169 17.4987 492.78 19.376C490.391 21.168 487.191 22.064 483.18 22.064ZM462.828 91.696L467.308 90.672C468.588 90.416 469.399 90.1173 469.74 89.776C470.167 89.4347 470.38 88.7947 470.38 87.856V39.472C470.38 38.5333 470.167 37.8933 469.74 37.552C469.399 37.2107 468.588 36.912 467.308 36.656L462.828 35.632V33.328L493.548 29.488H495.98V87.856C495.98 88.7947 496.151 89.4347 496.492 89.776C496.919 90.1173 497.772 90.416 499.052 90.672L503.532 91.696V94H462.828V91.696ZM541.179 92.464C545.19 92.464 548.134 91.8667 550.011 90.672C551.974 89.4773 552.955 87.3867 552.955 84.4C552.955 82.352 552.443 80.688 551.419 79.408C550.395 78.128 548.774 76.976 546.555 75.952C544.336 74.928 540.795 73.52 535.931 71.728C527.654 68.7413 521.766 65.6693 518.267 62.512C514.768 59.2693 513.019 54.832 513.019 49.2C513.019 42.8 515.408 38.064 520.187 34.992C524.966 31.8347 532.219 30.256 541.947 30.256C546.896 30.256 551.76 30.768 556.539 31.792C561.318 32.7307 565.03 33.84 567.675 35.12L566.139 50.48H563.963C561.659 44.7627 558.886 40.4533 555.643 37.552C552.4 34.5653 547.707 33.072 541.563 33.072C537.638 33.072 534.608 33.6267 532.475 34.736C530.342 35.76 529.275 37.68 529.275 40.496C529.275 42.4587 529.744 44.0373 530.683 45.232C531.707 46.4267 533.243 47.536 535.291 48.56C537.424 49.584 540.923 51.0773 545.787 53.04C552.784 55.856 558.075 58.288 561.659 60.336C565.243 62.384 567.888 64.7307 569.595 67.376C571.302 70.0213 572.155 73.3493 572.155 77.36C572.155 83.76 569.68 88.4107 564.731 91.312C559.867 94.128 552.528 95.536 542.715 95.536C537.51 95.536 532.048 95.024 526.331 94C520.699 93.0613 516.475 91.952 513.659 90.672L515.451 73.264H517.627C519.163 80.0053 521.894 84.912 525.819 87.984C529.744 90.9707 534.864 92.464 541.179 92.464ZM580.816 35.12V31.792C583.461 31.792 585.424 31.5787 586.704 31.152C587.984 30.7253 589.264 29.9573 590.544 28.848L613.328 8.368H614.48V31.792H630.992V35.12H614.48V78.128C614.48 82.224 614.949 85.1253 615.888 86.832C616.912 88.4533 618.619 89.264 621.008 89.264C622.885 89.264 624.549 88.88 626 88.112C627.451 87.344 629.029 86.0213 630.736 84.144L632.784 86.576C627.408 92.5493 619.472 95.536 608.976 95.536C601.893 95.536 596.816 94.0427 593.744 91.056C590.672 88.0693 589.136 83.4187 589.136 77.104V35.12H580.816Z" fill="#D0E0E6"/>
</svg>
