<svg width="222" height="51" viewBox="0 0 222 51" fill="none" xmlns="http://www.w3.org/2000/svg">
<path d="M3.79687 4.51069C3.79687 4.13286 3.711 3.87525 3.53926 3.73786C3.40187 3.60047 3.07556 3.48025 2.56034 3.3772L0.654026 2.96503V1.93459H17.7593V2.96503L15.5439 3.42873C15.0287 3.53177 14.6852 3.65199 14.5134 3.78938C14.3761 3.92677 14.3074 4.18438 14.3074 4.56221V36.4543H20.7991C22.8257 36.4543 24.4057 36.1452 25.5392 35.5269C26.6726 34.9087 27.5485 34.0328 28.1668 32.8993C28.8194 31.7658 29.5407 30.0484 30.3307 27.7471H31.7733V38H0.654026V36.9696L2.56034 36.5574C3.07556 36.4543 3.40187 36.3341 3.53926 36.1967C3.711 36.0593 3.79687 35.8017 3.79687 35.4239V4.51069ZM48.774 14.0423C47.984 14.214 47.589 14.5403 47.589 15.0212C47.589 15.2273 47.6748 15.5021 47.8466 15.8455L53.8231 27.8502L59.439 14.7636C59.5421 14.5575 59.5936 14.3857 59.5936 14.2483C59.5936 14.0423 59.3703 13.922 58.9238 13.8877L57.5842 13.7331V12.9603H63.5093V13.7331L62.1697 13.9392C61.7575 14.0079 61.4656 14.0938 61.2938 14.1968C61.1221 14.2999 60.9504 14.5403 60.7786 14.9181L50.7318 38C49.3579 41.1944 48.2244 43.53 47.3314 45.007C46.4727 46.5183 45.4937 47.669 44.3946 48.459C43.3298 49.2833 41.8872 49.9188 40.0668 50.3653L37.2846 42.5339C39.6202 42.4309 41.8357 42.0359 43.9309 41.3489C46.0261 40.6963 47.8294 39.8548 49.3407 38.8244L36.9239 15.1242C36.7522 14.8151 36.5461 14.5918 36.3057 14.4544C36.0996 14.317 35.8248 14.214 35.4813 14.1453L33.9356 13.7331V12.9603H50.1136V13.7331L48.774 14.0423ZM78.1947 17.0821C81.1829 14.0251 84.2227 12.4966 87.3141 12.4966C88.4475 12.4966 89.3406 12.634 89.9932 12.9088L89.2204 20.9462H88.8597L78.2977 18.6277V35.5269C78.2977 35.9048 78.3664 36.1796 78.5038 36.3513C78.6755 36.4887 79.0018 36.6089 79.4827 36.7119L81.2345 37.0726V38H64.9535V37.0726L66.7568 36.6604C67.272 36.5574 67.5983 36.4372 67.7357 36.2998C67.9074 36.1624 67.9933 35.9048 67.9933 35.5269V16.0516C67.9933 15.6738 67.9074 15.4162 67.7357 15.2788C67.5983 15.1414 67.272 15.0212 66.7568 14.9181L64.9535 14.506V13.5786L77.3188 12.0329H78.1947V17.0821ZM101.072 9.04463C99.4581 9.04463 98.17 8.68397 97.2083 7.96267C96.2465 7.20701 95.7657 6.12505 95.7657 4.71678C95.7657 3.30851 96.2465 2.24372 97.2083 1.52241C98.17 0.766757 99.4581 0.388928 101.072 0.388928C102.687 0.388928 103.975 0.766757 104.937 1.52241C105.898 2.24372 106.379 3.30851 106.379 4.71678C106.379 6.12505 105.898 7.20701 104.937 7.96267C103.975 8.68397 102.687 9.04463 101.072 9.04463ZM92.8804 37.0726L94.6837 36.6604C95.1989 36.5574 95.5252 36.4372 95.6626 36.2998C95.8344 36.1624 95.9202 35.9048 95.9202 35.5269V16.0516C95.9202 15.6738 95.8344 15.4162 95.6626 15.2788C95.5252 15.1414 95.1989 15.0212 94.6837 14.9181L92.8804 14.506V13.5786L105.246 12.0329H106.225V35.5269C106.225 35.9048 106.293 36.1624 106.431 36.2998C106.602 36.4372 106.946 36.5574 107.461 36.6604L109.264 37.0726V38H92.8804V37.0726ZM124.83 18.1125C124.83 22.509 125.225 26.0469 126.015 28.726C126.805 31.3708 128.093 33.3115 129.879 34.548C131.7 35.7846 134.138 36.4028 137.195 36.4028H138.844V23.7284H133.743V22.1827H147.809V35.733C147.053 35.8704 146.143 36.0765 145.078 36.3513C144.048 36.5917 143.258 36.7806 142.708 36.918C140.441 37.502 138.621 37.9313 137.247 38.2061C135.907 38.4809 134.654 38.6183 133.486 38.6183C129.811 38.6183 126.479 38 123.491 36.7635C120.502 35.4926 118.081 33.4317 116.226 30.5808C114.406 27.7299 113.495 24.0204 113.495 19.4521C113.495 13.2351 115.367 8.6668 119.111 5.74722C122.855 2.79329 127.784 1.31632 133.898 1.31632C136.44 1.31632 138.896 1.53959 141.266 1.98611C143.67 2.43263 145.542 2.9822 146.882 3.63481L146.16 12.4966H144.718C143.756 9.57702 142.433 7.24136 140.75 5.48961C139.102 3.70351 136.835 2.81046 133.95 2.81046C130.686 2.81046 128.351 4.09851 126.943 6.67461C125.534 9.21637 124.83 13.029 124.83 18.1125ZM160.846 9.04463C159.232 9.04463 157.944 8.68397 156.982 7.96267C156.02 7.20701 155.539 6.12505 155.539 4.71678C155.539 3.30851 156.02 2.24372 156.982 1.52241C157.944 0.766757 159.232 0.388928 160.846 0.388928C162.46 0.388928 163.748 0.766757 164.71 1.52241C165.672 2.24372 166.153 3.30851 166.153 4.71678C166.153 6.12505 165.672 7.20701 164.71 7.96267C163.748 8.68397 162.46 9.04463 160.846 9.04463ZM152.654 37.0726L154.457 36.6604C154.973 36.5574 155.299 36.4372 155.436 36.2998C155.608 36.1624 155.694 35.9048 155.694 35.5269V16.0516C155.694 15.6738 155.608 15.4162 155.436 15.2788C155.299 15.1414 154.973 15.0212 154.457 14.9181L152.654 14.506V13.5786L165.019 12.0329H165.998V35.5269C165.998 35.9048 166.067 36.1624 166.204 36.2998C166.376 36.4372 166.72 36.5574 167.235 36.6604L169.038 37.0726V38H152.654V37.0726ZM184.192 37.3817C185.806 37.3817 186.991 37.1413 187.747 36.6604C188.537 36.1796 188.932 35.338 188.932 34.1358C188.932 33.3115 188.725 32.6417 188.313 32.1265C187.901 31.6113 187.249 31.1476 186.355 30.7354C185.462 30.3232 184.037 29.7565 182.079 29.0352C178.747 27.833 176.377 26.5965 174.969 25.3256C173.561 24.0204 172.857 22.2343 172.857 19.9673C172.857 17.3912 173.818 15.4849 175.742 14.2483C177.665 12.9775 180.585 12.342 184.501 12.342C186.493 12.342 188.451 12.5481 190.374 12.9603C192.298 13.3381 193.792 13.7847 194.857 14.2999L194.238 20.4825H193.362C192.435 18.1812 191.319 16.4466 190.014 15.2788C188.708 14.0766 186.819 13.4755 184.346 13.4755C182.766 13.4755 181.547 13.6988 180.688 14.1453C179.829 14.5575 179.4 15.3303 179.4 16.4638C179.4 17.2538 179.589 17.8892 179.967 18.3701C180.379 18.851 180.997 19.2975 181.822 19.7097C182.68 20.1219 184.088 20.7229 186.046 21.513C188.863 22.6464 190.992 23.6254 192.435 24.4497C193.878 25.2741 194.942 26.2186 195.629 27.2834C196.316 28.3482 196.66 29.6878 196.66 31.3021C196.66 33.8782 195.664 35.7502 193.672 36.918C191.714 38.0515 188.76 38.6183 184.81 38.6183C182.715 38.6183 180.516 38.4122 178.215 38C175.948 37.6222 174.248 37.1756 173.114 36.6604L173.836 29.6534H174.711C175.33 32.3669 176.429 34.3419 178.009 35.5785C179.589 36.7806 181.65 37.3817 184.192 37.3817ZM200.146 14.2999V12.9603C201.211 12.9603 202.001 12.8744 202.516 12.7027C203.031 12.5309 203.547 12.2218 204.062 11.7753L213.233 3.53177H213.696V12.9603H220.343V14.2999H213.696V31.6113C213.696 33.26 213.885 34.4278 214.263 35.1148C214.675 35.7674 215.362 36.0937 216.324 36.0937C217.08 36.0937 217.749 35.9391 218.333 35.63C218.917 35.3209 219.553 34.7885 220.24 34.0328L221.064 35.0117C218.9 37.4161 215.706 38.6183 211.481 38.6183C208.63 38.6183 206.586 38.0172 205.35 36.815C204.113 35.6128 203.495 33.7408 203.495 31.1991V14.2999H200.146Z" fill="#D0E0E6"/>
</svg>
